<svg id="Capa_1" data-name="Capa 1" xmlns="http://www.w3.org/2000/svg" viewBox="0 0 666.89 492.87"><defs><style>.cls-1{fill:none;stroke:#ce6b01;stroke-miterlimit:10;stroke-width:20px;}</style></defs><title>iconoLogo</title><path class="cls-1" d="M714.9,532.28c-1.08-1.25-19.24-11.57-21.9-13.78-4.87-4-8-49.65-8-49.65H574.45s-3.12,45.63-8,49.65c-2.66,2.21-20.82,12.53-21.9,13.78-.34.62,1.78,2.72,8.14,2.72H707.8C714.17,535,715.23,532.9,714.9,532.28Z" transform="translate(-344.22 -52.13)"/><path class="cls-1" d="M915.94,424.47v31.75c0,6.64-6.37,12.08-14.16,12.08H368.38c-7.79,0-14.16-5.44-14.16-12.08V424.47H759.58" transform="translate(-344.22 -52.13)"/><line class="cls-1" x1="570.98" y1="371.76" x2="570.98" y2="215.72"/><path class="cls-1" d="M757.87,139.77H368c-7.36,0-13.38,4.64-13.38,10.3V423.89" transform="translate(-344.22 -52.13)"/><path class="cls-1" d="M986.87,129.81A109.89,109.89,0,0,0,979,117.65l-27.71,6.72-19.51-17.43,8.52-23.82a146.65,146.65,0,0,0-29-13L893.08,89.56l-27.89-3.88L856,62.37a162.56,162.56,0,0,0-31.73,4.2l-1.93,24.81-25.7,11-23.29-14a140.2,140.2,0,0,0-24,20.07l15.25,20.69-13.68,21.82-28.62.77a110,110,0,0,0-6.14,28.17l26.54,8.68,3.59,24.29-23,15.21a113.82,113.82,0,0,0,6.45,13.7,125.81,125.81,0,0,0,7.61,11.81l27.76-6.66,19.45,17.48-8.66,23.84a149.1,149.1,0,0,0,29,13.14l18.31-19.45,27.89,4,9.07,23.36a165.53,165.53,0,0,0,32.72-4.32l1.83-24.83L920.32,269l23.32,14a141.76,141.76,0,0,0,24-20.15l-15.32-20.65,13.57-21.87,28.62-.84a109.74,109.74,0,0,0,6.06-28.2l-26.61-8.57-3.72-24.32,23-15.24A112.37,112.37,0,0,0,986.87,129.81Zm-70.66,78.1c-14.86,28-52.8,40.89-84.9,28.61s-45.87-44.88-30.93-72.87c14.78-28.06,52.79-40.88,84.78-28.66S931.11,179.9,916.21,207.91Z" transform="translate(-344.22 -52.13)"/><path class="cls-1" d="M705.31,263.13a80.14,80.14,0,0,0-5.4-8.6l-18.61,4.2L668,246.27l5.57-16.45a101.36,101.36,0,0,0-19.6-9.57l-12.15,13.26L623,230.33l-6.35-16.39a104.56,104.56,0,0,0-21.35,2.39l-1.11,17.24L577,240.77l-15.79-10.15a90.63,90.63,0,0,0-16.05,13.57l10.43,14.67-9.06,15-19.27.05a76.65,76.65,0,0,0-3.93,19.51l17.94,6.5,2.59,17-15.39,10.2a82.39,82.39,0,0,0,4.44,9.65,93.77,93.77,0,0,0,5.22,8.36l18.64-4.17L570,353.41l-5.65,16.45A102.76,102.76,0,0,0,584,379.5l12.19-13.23L615,369.5l6.29,16.42a106.56,106.56,0,0,0,22-2.46l1.06-17.25,17.19-7.27,15.81,10.12a91.27,91.27,0,0,0,16-13.63l-10.47-14.64,9-15,19.27-.1A77.16,77.16,0,0,0,715,306.16l-18-6.42-2.68-17,15.39-10.23A82.7,82.7,0,0,0,705.31,263.13Zm-47,53.19c-9.8,19.23-35.26,27.58-57,18.49s-31.22-32-21.37-51.28S615.2,256,636.84,265,668.12,297.07,658.28,316.32Z" transform="translate(-344.22 -52.13)"/></svg>