<svg id="Capa_2" data-name="Capa 2" xmlns="http://www.w3.org/2000/svg" viewBox="0 0 352.44 93.48"><defs><style>.cls-1{font-size:44.13px;fill:#222220;font-family:AliviaRegular, Alivia;}.cls-2{fill:#c13b45;}.cls-2,.cls-3{stroke:#cb4f24;stroke-miterlimit:10;}.cls-3{fill:none;stroke-width:3px;}</style></defs><title>logo principal</title><text class="cls-1" transform="translate(79.42 51.59) scale(1.23 1)">Ale-hotel</text><path class="cls-2" d="M143.05,60.87" transform="translate(-17.39 -5.2)"/><path class="cls-3" d="M60.08,79.43c-.12-.19-2.19-1.79-2.5-2.13-.56-.63-.91-7.68-.91-7.68H44s-.35,7-.91,7.68c-.3.34-2.38,1.94-2.5,2.13s.2.42.93.42H59.27C60,79.85,60.12,79.52,60.08,79.43Z" transform="translate(-17.39 -5.2)"/><path class="cls-3" d="M83,62.75v4.91a1.76,1.76,0,0,1-1.62,1.87H20.51a1.76,1.76,0,0,1-1.62-1.87V62.75H65.18" transform="translate(-17.39 -5.2)"/><line class="cls-3" x1="65.57" y1="57.47" x2="65.57" y2="33.33"/><path class="cls-3" d="M65,18.72H20.46a1.57,1.57,0,0,0-1.53,1.6V62.67" transform="translate(-17.39 -5.2)"/><path class="cls-3" d="M91.14,17.18a19.14,19.14,0,0,0-.9-1.88l-3.16,1-2.23-2.69,1-3.69a14.91,14.91,0,0,0-3.31-2l-2.08,3-3.18-.6-1-3.61a14.37,14.37,0,0,0-3.63.65l-.22,3.84-2.93,1.69-2.66-2.16A18.06,18.06,0,0,0,64,13.87l1.74,3.2-1.56,3.38-3.27.12a22.56,22.56,0,0,0-.7,4.35l3,1.34L63.66,30,61,32.37a21.34,21.34,0,0,0,.74,2.12c.27.64.56,1.24.87,1.83l3.17-1L68,38l-1,3.69a15.43,15.43,0,0,0,3.31,2l2.1-3,3.18.62,1,3.61a14.29,14.29,0,0,0,3.73-.67l.21-3.84,2.93-1.71,2.66,2.16a18.13,18.13,0,0,0,2.74-3.12l-1.75-3.19,1.55-3.38L92,31.05a22,22,0,0,0,.69-4.36l-3-1.33-.42-3.76,2.63-2.36C91.66,18.55,91.42,17.86,91.14,17.18ZM83.07,29.26c-1.69,4.33-6,6.32-9.69,4.43s-5.24-6.94-3.54-11.27,6-6.33,9.69-4.44S84.77,24.93,83.07,29.26Z" transform="translate(-17.39 -5.2)"/><path class="cls-3" d="M59,37.8c-.19-.46-.4-.9-.62-1.33l-2.13.65-1.51-1.93.63-2.54a10.93,10.93,0,0,0-2.23-1.48l-1.39,2-2.15-.49-.73-2.54a9.24,9.24,0,0,0-2.43.37l-.13,2.67-2,1.11-1.8-1.57a11.84,11.84,0,0,0-1.83,2.1l1.19,2.27-1,2.32h-2.2a16,16,0,0,0-.45,3l2,1,.3,2.62-1.76,1.58a13.79,13.79,0,0,0,.51,1.49c.18.45.38.88.59,1.29L42,49.83l1.51,1.93-.64,2.55a10.78,10.78,0,0,0,2.24,1.49l1.39-2,2.15.5.72,2.54a9.1,9.1,0,0,0,2.51-.38L52,53.74l2-1.12,1.81,1.57a13.2,13.2,0,0,0,1.83-2.11l-1.2-2.27,1-2.32h2.2a15.94,15.94,0,0,0,.44-3l-2.06-1-.3-2.63,1.76-1.58C59.34,38.76,59.18,38.28,59,37.8ZM53.62,46c-1.12,3-4,4.26-6.51,2.86s-3.57-5-2.44-7.93,4-4.27,6.5-2.87S54.74,43.05,53.62,46Z" transform="translate(-17.39 -5.2)"/></svg>