<?xml version="1.0" encoding="utf-8"?>
<!-- Generator: Adobe Illustrator 23.0.5, SVG Export Plug-In . SVG Version: 6.00 Build 0)  -->
<svg version="1.1" id="Capa_1" xmlns="http://www.w3.org/2000/svg" xmlns:xlink="http://www.w3.org/1999/xlink" x="0px" y="0px"
	 viewBox="0 0 400 92" style="enable-background:new 0 0 400 92;" xml:space="preserve">
<style type="text/css">
	.st0{fill:#262427;}
	.st1{fill:#2C2A2D;}
	.st2{fill:#E75A4C;}
	.st3{fill:#DC4942;}
	.st4{fill:#E0413B;}
	.st5{fill:#FBE2D9;}
	.st6{fill:#A9282C;}
	.st7{fill:#3F3C40;}
	.st8{fill:#C43838;}
	.st9{fill:#5C595C;}
	.st10{fill:#E6E5E6;}
	.st11{fill:#C5433F;}
	.st12{fill:#CF534E;}
	.st13{fill:#FCF7F6;}
	.st14{fill:#FEFEFE;}
	.st15{fill:#FDF2EE;}
</style>
<g>
	<path class="st0" d="M356.3,39.88c-0.8,2.63-1.63,5.23-2.04,7.97c-0.62,4.26-0.52,8.52-0.3,12.79c0.08,1.43,0.27,2.86,0.35,4.29
		c0.05,0.81,0.19,1.54,0.99,1.9c0.87,0.39,1.73,0.27,2.47-0.33c1.11-0.89,1.87-2.07,2.53-3.31c1.09-2.04,1.7-4.29,2.65-6.39
		c0.37-0.83,0.79-1.65,1.31-2.45c0.32,1.6,0.29,3.17-0.07,4.74c-0.87,3.79-2.52,7.15-5.66,9.58c-2.84,2.21-6.32,1.95-8.91-0.57
		c-0.75-0.73-1.4-1.54-1.96-2.41c-0.54-0.84-1.04-1.7-1.71-2.8c-0.87,0.93-1.65,1.87-2.54,2.69c-2.38,2.18-5,3.99-8.29,4.5
		c-3.99,0.62-7.24-1.02-10.12-3.59c-0.98-0.88-1.93-1.82-2.74-2.84c-0.67-0.84-0.98-0.95-1.58,0.07c-0.92,1.59-1.98,3.08-3.25,4.43
		c-3.16,3.34-8.96,2.22-11.17-1c-1.17-1.7-1.69-3.63-2.18-5.76c-2.95,4.47-7.52,6.04-12.16,7.48c-2.01,0.62-4.01,1.35-6.14,1.45
		c-4.75,0.23-8.49-1.78-11.58-5.22c-0.58-0.65-1.13-1.32-1.7-1.98c-0.04-0.72-0.85-0.93-1.03-1.56c0.51-2.41,1.11-4.8,1.88-7.15
		c1.96-5.96,8.43-8.76,13.69-8.17c1.68,0.19,3.29,0.59,4.72,1.53c-0.19,0.41,0.18,1.06-0.55,1.23c-4.14-1.95-7.11-1-8.76,2.82
		c-0.84,0.42-1.05,1.1-0.84,1.96c-0.13,0.5-0.3,0.99-0.39,1.5c-0.69,3.79-0.51,7.47,1.47,10.9c0.52,0.89,1.17,1.62,2.19,1.92
		c1.07,0.31,2.68-0.38,3.18-1.41c0.57-1.16-0.6-1.43-1.09-2.08c-0.63-0.83-2.26-1.06-1.64-2.67c0.08-0.21-0.22-0.3-0.37-0.4
		c-1.51-0.96-1.79-2.42-1.73-4.07c0.05-1.14,0.43-2.28,0.09-3.44c0.4-0.72,0.8-1.44,1.21-2.16c1.74-1.1,3.49-2.17,5.7-1.44
		c0.22,0.36,0.62,0.38,0.97,0.51c0.79,0.96,0.97,0.94,2.19-0.26c0.79,0.01,1.07,0.64,1.43,1.18c0.41,1.47,1.19,2.77,1.85,4.12
		c1.37,2.8,1.56,5.62,0.18,8.47c-0.02,0.09-0.08,0.25-0.05,0.27c0.12,0.08,0.18-0.02,0.2-0.13c3.65-2.21,6.07-5.27,6.38-9.65
		c0.28-3.98,0.05-7.98,0.19-11.97c0.1-2.98-1.3-4.19-4.34-4.66c0.05-0.06,0.09-0.16,0.15-0.17c3.75-0.71,5.08-3.28,5.31-6.78
		c0.16-2.47,1.67-4.21,3.81-4.58c2.25-0.38,3.84,0.92,3.92,3.2c0.04,1.17-0.26,2.29-0.44,3.44c-0.34,2.24,0.53,3.33,2.78,3.49
		c0.95,0.06,1.91,0.05,2.87,0.08c0.42,0.01,0.8,0.06,0.77,0.65c-0.03,0.57-0.27,0.75-0.82,0.72c-0.56-0.03-1.12,0-1.67,0.09
		c-2.02,0.34-3.23,1.69-3.58,3.79c-0.31,1.83-0.09,3.66-0.05,5.49c0.11,4.47-0.37,8.94-0.1,13.42c0.09,1.47,0.28,2.94,0.38,4.41
		c0.05,0.73,0.25,1.36,0.96,1.65c0.68,0.29,1.31,0.07,1.88-0.39c2.33-1.89,3.88-4.3,4.87-7.1c0.51-1.43,0.84-2.9,1.13-4.39
		c0.95-4.89,4.07-7.58,8.76-8.68c1.29-0.3,2.6-0.42,3.92-0.36c1.87,0.09,3.17,1,3.78,2.78c0.42,1.21,0.64,2.46,0.5,3.75
		c-0.57,0-1.13,0.01-1.7,0.01c-0.02-0.56,0-1.12-0.08-1.67c-0.2-1.43-1.25-2.44-2.7-2.64c-1.83-0.26-3.2,0.27-3.71,1.68
		c-0.73,2-0.97,4.11-0.79,6.23c0.06,0.74,0.53,1.31,1.2,1.68c0,0.56,0,1.12,0,1.68c-1.21,1.83-1.02,3.59,0.24,5.32
		c2.71,3.72,5.21,4.11,8.89,1.34c3.94-2.96,5.53-7.11,5.72-11.85c0.15-3.67-0.08-7.34-0.1-11.01c-0.03-4.22,0.22-8.45,1.59-12.52
		c1.04-3.1,2.94-5.35,6.13-6.36c2.09-0.67,3.6-0.03,4.66,1.96c-0.57,0.21-0.76,0.99-1.47,0.97c-1.58-1.02-2.08-0.78-2.22,1.08
		c-0.25,3.58-0.43,7.16-0.45,10.75c0,0.31-0.12,0.7,0.22,0.86c0.49,0.24,0.68-0.23,0.94-0.51C355.27,39.84,355.78,39.86,356.3,39.88
		z M285.95,61.47c0.63-0.03,1.03,0.35,1.42,0.77c0.42,0.45,0.89,0.89,1.55,0.63c0.58-0.22,0.56-0.87,0.59-1.34
		c0.2-2.39,0.04-4.78-0.13-7.17c-0.06-0.8-0.43-1.4-1.26-1.52c-0.86-0.13-1.78-0.05-2.19,0.84c-0.62,1.38-1.1,2.85-0.54,4.38
		c0.41,1.12,0.85,2.21,0.57,3.43c-0.06,0-0.11-0.01-0.17-0.01c0,0.04,0,0.07,0.01,0.11C285.85,61.56,285.9,61.51,285.95,61.47z"/>
	<path class="st1" d="M106.64,60.7c2.48-2.12,5.47-3.06,8.61-3.52c2.8-0.41,5.63-0.69,8.45-0.96c2.51-0.24,4.3-1.37,5.39-3.73
		c2.94-6.37,6.06-12.64,9.24-18.9c1-1.97,2.2-3.81,3.9-5.26c3.27-2.8,6.7-2.1,8.64,1.75c1.19,2.35,1.65,4.92,1.84,7.5
		c0.37,4.82,0.59,9.65,0.5,14.49c-0.01,0.4,0,0.8,0.02,1.2c0.15,2.55,1.54,4.04,4.06,4.37c0.55,0.07,1.1,0.15,1.72,0.23
		c-0.56,0.9-1.36,0.96-2.22,0.96c-3.02,0-3.07,0.01-3.28,3c-0.22,3.24,0.05,6.39,2.07,9.13c1.54,2.09,3.01,2.34,4.9,0.55
		c3.71-3.52,5.91-7.9,6.66-12.95c0.54-3.6,0.42-7.25,0.42-10.89c0-4.36,0.05-8.71,0.79-13.02c0.55-3.21,1.56-6.2,4.11-8.42
		c1.58-1.39,3.37-2.11,5.51-1.51c2.06,0.58,3.34,2.15,3.33,4.29c-0.02,3.51-0.64,6.93-2.15,10.1c-1.95,4.09-2.8,8.39-2.85,12.86
		c-0.04,4.31,0.12,8.63,0.21,12.94c0.02,0.98,0.18,1.94,1.24,2.39c1.1,0.47,1.83-0.23,2.52-0.9c2.91-2.84,4.47-6.36,5.12-10.32
		c1.04-6.37,6.9-10.66,13.33-9.74c2.92,0.42,4.94,3.6,4.06,6.59c-0.85,2.86-2.56,5.02-5.49,6.02c-0.72,0.25-1.41,0.55-2.01,1.03
		c-0.88,0.71-1.25,1.6-1.07,2.73c0.63,3.83,3.63,6.1,6.9,5.16c1.92-0.56,3.54-1.62,4.83-3.17c1.67-2.01,2.49-4.42,3.24-6.87
		c0.34-1.1,0.65-2.21,1.04-3.52c2.19,3.38,5.58,2.8,8.69,2.87c4.87,0.12,9.75-0.24,14.63-0.05c1.52,0.06,3.02,0.27,4.52,0.51
		c0.4,0.06,0.77,0.18,1.02,0.54c-0.36,0.44-0.8,0.58-1.36,0.58c-4.16,0.03-8.31,0.08-12.47,0.12c-3.64,0.04-7.27,0.13-10.91,0.08
		c-1.95-0.02-3.23,0.76-4.11,2.48c-1.22,2.4-2.79,4.56-4.93,6.25c-4.17,3.28-8.8,3.56-13.36,0.8c-2.12-1.28-3.87-2.97-5.35-4.92
		c-0.58-0.76-0.81-0.62-1.34,0.02c-1.7,2.07-3.46,4.09-5.76,5.55c-2.49,1.58-4.64,1.46-6.94-0.39c-1.35-1.09-2.37-2.47-3.36-3.89
		c-0.33-0.48-0.65-0.96-1.08-1.59c-0.75,2.02-1.36,3.91-2.39,5.62c-1.76,2.91-4.05,5.09-7.52,5.83c-6.24,1.33-12.01-3.02-12.4-9.4
		c-0.07-1.11-0.12-2.23-0.24-3.34c-0.26-2.23-1.33-3.62-3.49-3.75c-3.41-0.2-6.86-0.27-10.27-0.01c-3.14,0.24-5.1,2.41-6.4,5.15
		c-1.61,3.39-3.85,6.23-7.01,8.31c-0.1,0.06-0.22,0.09-0.33,0.13c-0.69-0.14-1.16-0.52-1.3-1.24c1.51-1.7,3.06-3.36,4.51-5.1
		c1.83-2.2,3.37-4.59,4.47-7.32c-6.34,0.72-11.94,0.97-17.82,3.56C107.27,61.65,106.94,61.2,106.64,60.7z M129.45,56.27
		c2.79,0,5.46-0.02,8.14,0.01c1.75,0.02,3.51,0.16,5.26,0.17c1.22,0,1.98-0.65,2.29-1.87c0.23-0.91,0.16-1.83,0.16-2.74
		c0.04-6.67,0.02-13.35,0.31-20.01c0.03-0.7,0.04-1.42-0.77-1.7c-0.73-0.26-1.42-0.13-1.96,0.49c-0.23,0.27-0.5,0.53-0.69,0.82
		c-0.66,1-1.32,2-1.94,3.02C136.01,41.39,133.3,49.1,129.45,56.27z M193.52,55.45c-0.06,0.73,0.09,1.43,0.31,2.12
		c0.12,0.36,0.31,0.48,0.7,0.34c2.8-0.94,5.07-2.5,6.08-5.42c0.58-1.68-0.19-3.03-2.01-3.74c-1.75-0.68-3.21-0.27-3.81,1.27
		C194.12,51.76,193.63,53.57,193.52,55.45z M176.25,38.82c2.21-3.1,2.82-6.33,3.15-9.63c0.09-0.91-0.39-1.63-1.25-1.98
		c-1.07-0.43-1.87-0.01-1.88,1.01C176.23,31.63,176.25,35.05,176.25,38.82z"/>
	<path class="st0" d="M250.74,39.93c0.29,1.84-0.37,3.54-0.84,5.26c-0.21,0.76-0.46,1.51-0.75,2.45c1.59-0.39,3.03-0.79,4.48-1.09
		c5.74-1.18,9.76,2,9.98,7.85c0.13,3.39,0.32,6.77,0.49,10.16c0.01,0.2,0.03,0.4,0.06,0.59c0.38,2.11,1.01,2.49,3.04,1.83
		c0.51,0.58,0.15,1.27,0.25,1.9c-1.99,1.03-4.1,1.39-6.26,0.85c-3.01-0.75-4.44-3.05-5.22-5.85c-0.37-1.35-0.54-2.74-0.52-4.14
		c0.03-3.07,0.03-6.15,0.08-9.22c0.02-1.05-0.42-1.59-1.46-1.59c-0.56,0-1.13,0.01-1.67,0.1c-2.21,0.38-3.09,1.46-3.11,3.82
		c-0.03,3.8-0.05,7.59-0.07,11.39c0,0.36,0.01,0.72,0,1.08c-0.11,4.29-2.32,4.98-5.73,4.48c-1.66-0.25-2.71-1.48-2.88-3.23
		c-0.11-1.11-0.08-2.23-0.06-3.35c0.06-4.59-0.09-9.19-0.09-13.78c0-5.98,0.16-11.98,1.83-17.79c0.57-1.98,1.5-3.78,3-5.23
		c1.47-1.43,3.19-2.3,5.3-1.77c2.76,0.69,4.04,3.17,3.33,6.34c-0.19,0.85-0.46,1.69-0.75,2.52c-0.49,1.41-0.77,2.84-0.65,4.34
		c-1.98,0.08-2.38-0.46-1.77-2.34c0.17-0.53,0.38-1.05,0.52-1.59c0.65-2.42,0.43-4.72-1-6.95c-0.14,0.4-0.25,0.7-0.34,1
		c-0.92,3.22-1.03,6.53-1.03,9.85C248.92,39.68,248.92,39.68,250.74,39.93z"/>
	<path class="st2" d="M91.55,20c0.42,3.21,2.29,5.78,3.81,8.5c0.41,0.72,0.7,1.52,0.94,2.32c0.44,1.44,0.33,2.67-0.83,3.94
		c-2.46,2.7-3.15,6.11-3.2,9.66c-0.03,1.71,0.11,3.42,0.16,5.14c0.13,4.23-0.04,8.44-0.4,12.65c-0.03,0.35-0.18,0.69-0.28,1.03
		c-0.95,0-1.9,0-2.85,0c-0.08-3.06-0.16-6.13-0.25-9.19c-0.07-2.47-0.09-4.94-0.22-7.4c-0.08-1.42-1.01-2.2-2.53-2.37
		c-1.62-0.18-2.16,0.15-2.68,1.67c-0.62,1.8-1.45,2.31-3.45,2.1c0.37-0.76,0.27-1.41-0.44-1.94c-0.28-0.21-0.53-0.47-0.52-0.87
		c1.07-1.01,2.1-2.07,3.21-3.03c1.44-1.25,3.08-1.77,5-1.24c1.37,0.38,2.05-0.3,1.72-1.72c-0.6-2.53,0.28-4.47,2.3-5.95
		c0.92-0.68,1.92-1.26,2.89-1.89c-0.28-0.47-0.78-0.57-1.18-0.82c-2.27-1.44-3.87-3.3-4.11-6.11c-0.09-1.09,0.31-2.13,0.21-3.21
		C89.81,20.94,90.89,20.92,91.55,20z"/>
	<path class="st3" d="M88.9,63.22c0.95,0,1.9,0,2.85,0c-0.68,2.98-2.56,4.67-5.59,4.78c-2.83,0.11-5.66,0.01-8.49,0.06
		c-3.23,0.05-6.45,0.12-9.68,0.26c-1.86,0.09-2.24,0.91-1.49,2.85c-0.06,0.39-0.13,0.77-0.19,1.16c-1.3-0.1-2.6-0.19-3.9-0.29
		c1.14-1.78,1.1-2.6-0.19-3.43c-1.04-0.67-3.32-0.56-4.3,0.25c-1.09,0.9-0.48,1.94-0.19,2.95c0.02,0.08,0.04,0.15,0.06,0.23
		c-1.58,0-3.15-0.01-4.73-0.01c0.39-0.45,0.81-0.88,1.16-1.36c0.81-1.1,0.53-1.83-0.81-2.16c-1.29-0.32-2.62-0.29-3.93-0.29
		c-3.83,0-7.67,0.05-11.5,0.02c-1.55-0.01-3.1-0.18-4.6-0.65c5.62-0.1,11.24-0.2,16.86-0.3c0.44-0.01,0.88,0.02,1.32-0.01
		c1.13-0.08,1.74-0.73,1.84-1.91c2.64-0.17,5.28-0.34,7.92-0.5c1.2,0.03,2.39,0.07,3.59,0.09c6.67,0.12,13.33,0.26,20,0.35
		C86.56,65.35,88.04,64.84,88.9,63.22z"/>
	<path class="st4" d="M32.49,67.49c-1.95-0.1-2.76-0.7-3.3-2.51c-0.83-2.74-1.04-5.57-0.89-8.41c0.3-5.78,0.38-11.56,0.33-17.34
		c-0.03-4.03,0.08-8.06,0.13-12.09c0.01-0.99,0.4-1.86,0.81-2.72c0.34-0.71,0.92-1.09,1.74-1.01c0.34,0.77,0.28,1.76,1.26,2.16
		c-0.81,1.59-1.27,3.26-1.29,5.05c-0.02,3.19,0.19,6.38,0.03,9.57c-0.1,2.14,0.26,4.31,0.08,6.44c-0.17,2.03,0.1,3.64,2.1,4.57
		c-0.01,0.72-0.03,1.44-0.04,2.16c-0.59,0.24-1.37,0.11-1.67,0.89c-0.83,1.63-0.47,2.46,1.24,2.83c0.38,0.08,0.77,0.14,1.16,0.22
		c-0.36,0.94-1.2,1.53-1.69,2.37c-1.03,0.77-1.33,1.83-1.15,3.04c0.11,0.7,0.33,1.37,0.51,2.06c-0.27,0.4-0.25,0.78-0.02,1.21
		C32.08,66.47,32.27,66.99,32.49,67.49z"/>
	<path class="st3" d="M91.55,20c-0.66,0.92-1.74,0.95-2.68,1.24c-4.51,1.07-6.67,0.06-9.87-4.63c-0.84,1.01-1.63,2.05-2.51,3
		c-1.7,1.83-3.71,2.34-6.08,1.37c-1.43-0.59-2.33,0.16-2.11,1.71c0.07,0.51,0.29,0.99,0.43,1.49c0.21,0.77,0.24,1.5-0.41,2.1
		c-0.95,0-1.9,0-2.84,0c-0.16-1.23-1.32-0.82-2-1.22c0.31-0.93,0.85-1.78,0.94-2.78c0.77-1.02,1.5-2.07,2.33-3.04
		c1.44-1.68,3.05-2.15,5.04-1.27c1.26,0.56,1.83,0.11,2.38-0.89c0.81-1.47,1.97-2.51,3.65-2.85c2.05-0.41,3.69,0.25,4.91,1.95
		c0.37,0.52,0.72,1.05,1.13,1.54c0.51,0.62,1.21,0.89,1.92,0.46C88.42,16.6,90.09,17.77,91.55,20z"/>
	<path class="st4" d="M70.41,73.25c2.29,0.42,3.49,1.77,3.43,3.85c-0.06,1.97-1.04,3.08-3.01,3.13c-5.17,0.12-10.35,0.09-15.52-0.14
		c0-0.99-0.63-1.81-0.72-2.77c3.74-0.06,7.48-0.16,11.23-0.18C69.53,77.13,69.77,76.96,70.41,73.25z"/>
	<path class="st5" d="M70.41,73.25c-0.63,3.7-0.87,3.87-4.59,3.9c-3.74,0.02-7.48,0.12-11.23,0.18c-0.97-0.27-1.98-0.09-2.96-0.21
		c-0.72-0.09-1.71,0.13-2.01-0.67c-0.27-0.7,0.65-1.08,1.05-1.59c0.1-0.12,0.21-0.24,0.31-0.36c4.47-0.02,8.94-0.07,13.42-0.05
		c1.73,0.01,2.08-0.31,1.91-2.11c0.06-0.39,0.13-0.77,0.19-1.16c0.63-0.01,1.27-0.07,1.89-0.03C69.78,71.26,70.29,71.81,70.41,73.25
		z"/>
	<path class="st6" d="M64.4,22.28c-0.09,1-0.63,1.85-0.94,2.78c-0.44,0.02-0.87,0.04-1.31,0.05c-7.24,0.04-14.48,0.08-21.72,0.12
		c0-0.77-0.01-1.53-0.01-2.3c4.31-0.73,8.65-0.57,12.99-0.49c2.07,0.04,4.13,0.17,6.2,0.26c1.33,1.01,2.42,0.94,3.85-0.22
		C63.77,22.42,64.08,22.35,64.4,22.28z"/>
	<path class="st7" d="M116.75,70.6c0.14,0.72,0.6,1.1,1.3,1.24c-2.56,2.02-5.35,3.41-8.72,3.32c-3-0.08-5.15-1.46-6.4-4.19
		c-1.29-2.81-1.16-5.49,0.89-7.92c0.8-0.94,1.71-1.78,2.83-2.36c0.29,0.5,0.63,0.96,1.27,1.04c-0.54,0.58-1.11,1.14-1.62,1.75
		c-0.77,0.91-1.55,1.83-1.8,3.05c-0.79,3.88,3.27,7.41,7.29,6.34C113.56,72.39,115.13,71.44,116.75,70.6z"/>
	<path class="st8" d="M32.49,67.49c-0.22-0.5-0.41-1.02-0.67-1.5c-0.24-0.43-0.25-0.81,0.02-1.21c0.76,0.04,1.51,0.1,2.27,0.12
		c6.42,0.17,12.85,0.33,19.27,0.49c-0.1,1.18-0.71,1.83-1.84,1.91c-0.44,0.03-0.88,0-1.32,0.01c-5.62,0.1-11.24,0.2-16.86,0.3
		C33.07,67.57,32.78,67.53,32.49,67.49z"/>
	<path class="st8" d="M66.3,72.35c0.17,1.8-0.18,2.12-1.91,2.11c-4.47-0.02-8.94,0.03-13.42,0.05c-0.75-0.48-1.71-0.54-2.39-1.17
		c1.21-1.37,2.85-1.28,4.46-1.29c1.58,0,3.15,0.01,4.73,0.01c1.54,0.06,3.09,0.17,4.63,0C63.7,72.15,65,72.25,66.3,72.35z"/>
	<path class="st3" d="M48.58,73.33c0.68,0.63,1.64,0.69,2.39,1.17c-0.1,0.12-0.21,0.24-0.31,0.36c-0.4,0.51-1.32,0.89-1.05,1.59
		c0.3,0.8,1.3,0.58,2.01,0.67c0.98,0.12,1.99-0.06,2.96,0.21c0.09,0.96,0.72,1.79,0.72,2.77c-2.14,0.37-4.3,0.26-6.44,0.07
		c-1.99-0.17-2.97-2.12-2.3-4.27C46.9,74.8,47.61,73.95,48.58,73.33z"/>
	<path class="st9" d="M356.3,39.88c-0.52-0.02-1.04-0.04-1.56-0.06c0.55-2.23,1.18-4.44,1.63-6.69c0.36-1.81,0.68-3.67-0.12-5.48
		c0.71,0.02,0.9-0.76,1.47-0.97c1.58,2.07,1.7,4.38,1.04,6.78C358.16,35.67,357.18,37.76,356.3,39.88z"/>
	<path class="st10" d="M250.74,39.93c-1.83-0.24-1.83-0.24-1.83-2.11c0-3.32,0.11-6.63,1.03-9.85c0.09-0.3,0.2-0.6,0.34-1
		c1.43,2.23,1.66,4.53,1,6.95c-0.15,0.54-0.35,1.06-0.52,1.59c-0.61,1.88-0.2,2.42,1.77,2.34
		C252.62,39.42,252.34,39.75,250.74,39.93z"/>
	<path class="st11" d="M40.42,22.93c0,0.77,0.01,1.53,0.01,2.3c-2.62,0.11-5.24,0.23-7.87,0.34c-0.97-0.4-0.92-1.4-1.26-2.16
		c1.45-0.71,3.02-0.75,4.57-0.63C37.39,22.89,38.9,22.92,40.42,22.93z"/>
	<path class="st7" d="M336.67,52.83c0.57,0,1.13-0.01,1.7-0.01c-0.46,2.66-2.07,4.46-4.36,5.71c-1.07,0.59-2.2,1.06-3.42,1.27
		c0-0.56,0-1.12,0-1.68C332.89,56.66,335.22,55.26,336.67,52.83z"/>
	<path class="st7" d="M267.47,68.88c-0.1-0.63,0.26-1.32-0.25-1.9c1.42-1.8,2.84-3.61,4.26-5.41c0.18,0.63,0.99,0.84,1.03,1.56
		c-0.56,1.03-1.08,2.1-1.71,3.1C270.01,67.49,268.96,68.48,267.47,68.88z"/>
	<path class="st10" d="M291.21,50.96c-0.34-0.13-0.75-0.15-0.97-0.51c0.53-0.34,1.06-0.68,0.98-1.43c0.73-0.17,0.35-0.83,0.55-1.23
		c0.97,0.05,1.87,0.39,2.75,0.73c1.47,0.57,1.69,1.54,0.74,2.8c-0.14,0.19-0.29,0.38-0.43,0.57c-0.35-0.54-0.63-1.17-1.43-1.18
		C292.49,49.88,291.71,49.97,291.21,50.96z"/>
	<path class="st12" d="M63.46,22.48c-1.43,1.16-2.52,1.22-3.85,0.22C60.89,22.63,62.17,22.56,63.46,22.48z"/>
	<path class="st13" d="M336.67,52.83c-1.45,2.43-3.78,3.83-6.08,5.28c-0.67-0.37-1.14-0.94-1.2-1.68c-0.18-2.13,0.06-4.24,0.79-6.23
		c0.52-1.41,1.88-1.94,3.71-1.68c1.45,0.2,2.5,1.21,2.7,2.64C336.67,51.7,336.65,52.27,336.67,52.83z"/>
	<path class="st13" d="M283.34,54.05c0.34,1.16-0.05,2.29-0.09,3.44c-0.07,1.65,0.22,3.1,1.73,4.07c0.15,0.1,0.46,0.18,0.37,0.4
		c-0.62,1.61,1.02,1.85,1.64,2.67c0.49,0.65,1.65,0.92,1.09,2.08c-0.5,1.03-2.12,1.72-3.18,1.41c-1.02-0.3-1.67-1.03-2.19-1.92
		c-1.99-3.43-2.16-7.11-1.47-10.9c0.09-0.51,0.26-1,0.39-1.5C282.2,53.88,282.77,53.97,283.34,54.05z"/>
	<path class="st13" d="M285.97,61.5c0.28-1.22-0.16-2.31-0.57-3.43c-0.56-1.53-0.08-3,0.54-4.38c0.4-0.9,1.32-0.97,2.19-0.84
		c0.83,0.12,1.2,0.72,1.26,1.52c0.18,2.39,0.33,4.78,0.13,7.17c-0.04,0.47-0.01,1.12-0.59,1.34c-0.66,0.26-1.13-0.18-1.55-0.63
		c-0.39-0.42-0.79-0.8-1.42-0.77L285.97,61.5z"/>
	<path class="st10" d="M356.26,27.64c0.8,1.81,0.48,3.67,0.12,5.48c-0.45,2.25-1.08,4.46-1.63,6.69c-0.25,0.28-0.44,0.76-0.94,0.51
		c-0.34-0.17-0.22-0.56-0.22-0.86c0.02-3.59,0.2-7.17,0.45-10.75C354.17,26.86,354.68,26.62,356.26,27.64z"/>
	<path class="st13" d="M291.23,49.01c0.07,0.75-0.46,1.09-0.98,1.43c-2.2-0.73-3.95,0.34-5.7,1.44c-0.69-0.02-1.39-0.04-2.08-0.06
		C284.12,48.02,287.09,47.06,291.23,49.01z"/>
	<path class="st10" d="M282.47,51.83c0.69,0.02,1.39,0.04,2.08,0.06c-0.4,0.72-0.8,1.44-1.21,2.16c-0.57-0.09-1.14-0.17-1.72-0.26
		C281.41,52.93,281.63,52.25,282.47,51.83z"/>
	<path class="st13" d="M291.21,50.96c0.5-0.99,1.28-1.08,2.19-0.26C292.17,51.9,292,51.92,291.21,50.96z"/>
	<path class="st13" d="M285.95,61.47c-0.05,0.04-0.1,0.08-0.14,0.13c0-0.04,0-0.07-0.01-0.11c0.06,0,0.11,0.01,0.17,0.01
		C285.97,61.5,285.95,61.47,285.95,61.47z"/>
	<path class="st14" d="M297.01,64.61c-0.02,0.11-0.08,0.22-0.2,0.13c-0.03-0.02,0.03-0.18,0.05-0.27
		C296.91,64.51,296.96,64.56,297.01,64.61z"/>
	<path class="st13" d="M129.45,56.27c3.85-7.16,6.55-14.87,10.8-21.82c0.62-1.02,1.28-2.02,1.94-3.02c0.2-0.3,0.46-0.55,0.69-0.82
		c0.54-0.63,1.22-0.75,1.96-0.49c0.81,0.28,0.8,1.01,0.77,1.7c-0.29,6.67-0.28,13.34-0.31,20.01c0,0.91,0.07,1.83-0.16,2.74
		c-0.31,1.22-1.07,1.88-2.29,1.87c-1.75,0-3.51-0.15-5.26-0.17C134.92,56.24,132.24,56.27,129.45,56.27z"/>
	<path class="st14" d="M116.75,70.6c-1.62,0.84-3.19,1.79-4.97,2.27c-4.02,1.08-8.08-2.45-7.29-6.34c0.25-1.22,1.03-2.14,1.8-3.05
		c0.51-0.61,1.08-1.17,1.62-1.75c5.88-2.59,11.48-2.84,17.82-3.56c-1.1,2.73-2.64,5.12-4.47,7.32
		C119.81,67.24,118.26,68.9,116.75,70.6z"/>
	<path class="st13" d="M193.52,55.45c0.11-1.88,0.6-3.69,1.28-5.42c0.6-1.54,2.07-1.95,3.81-1.27c1.81,0.71,2.59,2.06,2.01,3.74
		c-1.01,2.92-3.28,4.48-6.08,5.42c-0.4,0.13-0.59,0.01-0.7-0.34C193.6,56.88,193.46,56.18,193.52,55.45z"/>
	<path class="st10" d="M176.25,38.82c0-3.77-0.02-7.19,0.01-10.61c0.01-1.02,0.82-1.44,1.88-1.01c0.87,0.35,1.34,1.07,1.25,1.98
		C179.07,32.49,178.47,35.72,176.25,38.82z"/>
	<path class="st13" d="M32.56,25.57c2.62-0.11,5.24-0.23,7.87-0.34c7.24-0.04,14.48-0.08,21.72-0.12c0.44,0,0.87-0.03,1.31-0.05
		c0.67,0.39,1.83-0.01,2,1.22c-0.83,0.4-1.64,0.82-2.36,1.4c-2.07,1.68-2.51,3.65-1.36,6.07c0.46,0.96,1.17,1.71,1.88,2.47
		c1.02,1.08,1.45,2.32,1.3,3.83c-0.33,3.14,2.36,5.39,5.43,4.61c0.54-0.14,1.09-0.26,1.64-0.33c1.28-0.15,2.47,0.31,2.67,1.5
		c0.39,2.36,1.83,2.53,3.7,2.27c0.47-0.07,0.95-0.05,1.43-0.08c2,0.21,2.83-0.3,3.45-2.1c0.52-1.52,1.06-1.85,2.68-1.67
		c1.52,0.17,2.46,0.96,2.53,2.37c0.13,2.46,0.15,4.93,0.22,7.4c0.08,3.06,0.16,6.13,0.25,9.19c-0.86,1.61-2.34,2.13-4.02,2.11
		c-6.67-0.09-13.33-0.23-20-0.35c-1.2-0.02-2.39-0.06-3.59-0.09c-0.09-0.57-0.17-1.14-0.26-1.71c-0.07-0.51-0.07-1.05-0.24-1.53
		c-0.35-1.05,0-1.28,1.05-1.3c3.34-0.06,6.68-0.23,10.01-0.36c1.83-0.01,3.66-0.03,5.49-0.04c0.7,0.12,1.4,0.3,2.1,0.34
		c0.71,0.03,1.09-0.39,1.07-1.13c-0.01-0.68-0.38-1.03-1.04-1.03c-0.71,0-1.43,0.02-2.11,0.3c-1.72-0.3-3.44-0.61-5.15-0.91
		c-2.19-0.39-4.37-0.87-6.6-0.27c-9.05,0-18.1,0-27.15,0.01c-1.43,0-2.87,0.04-4.3,0.06c-0.39-0.07-0.78-0.13-1.16-0.22
		c-1.71-0.37-2.08-1.2-1.24-2.83c0.59,0.09,1.15,0,1.68-0.25c1.34-0.01,2.68-0.02,4.02-0.01c1.6,0,3.18-0.05,4.4-1.31
		c0.88-1.39,0.8-1.69-0.51-1.88c-1.72-0.1-3.45-0.01-5.18-0.23c-0.9-0.12-1.97-0.3-2.7,0.63c-2-0.94-2.27-2.54-2.1-4.57
		c0.18-2.13-0.19-4.3-0.08-6.44c0.16-3.2-0.06-6.38-0.03-9.57C31.29,28.83,31.75,27.16,32.56,25.57z M50.61,49.36
		c2.07,0.07,4.64-0.67,6.93-2.31c2.04-1.46,3.06-3.38,2.61-5.99c-0.72-4.15-2.67-7.56-5.91-10.24c-1.99-1.65-4.23-1.99-6.63-1.11
		c-2.49,0.91-4.6,2.4-6.21,4.53c-2.7,3.58-2.07,9.96,1.3,12.92C44.75,48.94,47.27,49.31,50.61,49.36z"/>
	<path class="st15" d="M68.3,26.28c0.65-0.6,0.62-1.33,0.41-2.1c-0.14-0.5-0.35-0.99-0.43-1.49c-0.22-1.55,0.68-2.29,2.11-1.71
		c2.37,0.97,4.38,0.46,6.08-1.37c0.88-0.95,1.67-1.99,2.51-3c3.2,4.69,5.36,5.7,9.87,4.63c0.1,1.08-0.31,2.12-0.21,3.21
		c0.24,2.81,1.84,4.68,4.11,6.11c0.39,0.25,0.89,0.35,1.18,0.82c-0.98,0.63-1.97,1.21-2.89,1.89c-2.02,1.48-2.9,3.42-2.3,5.95
		c0.34,1.42-0.35,2.09-1.72,1.72c-1.92-0.53-3.56-0.01-5,1.24c-1.11,0.97-2.15,2.02-3.21,3.03c-0.66,0.02-0.68-0.6-0.92-0.96
		c-1.27-1.92-2.84-3.38-5.28-3.46c-1.42-0.05-2.71,0.53-4.09,1.11c0-0.5,0-0.89,0-1.28c-0.02-1.68,0.16-3.36-0.14-5.02
		c-0.2-1.1-0.7-1.94-1.92-2.18c-0.39-0.07-0.76-0.26-1.12-0.42c-0.79-0.36-1.88-0.57-1.99-1.53c-0.12-1,0.95-1.38,1.67-1.83
		C66.39,28.78,67.68,27.86,68.3,26.28z M79.07,23.33c-4.78,0.09-8.71,3.68-8.62,7.87c0.1,4.48,4,8.15,8.57,8.06
		c4.18-0.08,8.28-4.27,8.19-8.36C87.13,26.99,83.11,23.26,79.07,23.33z"/>
	<path class="st4" d="M68.3,26.28c-0.62,1.58-1.91,2.5-3.28,3.36c-0.72,0.45-1.79,0.83-1.67,1.83c0.11,0.96,1.2,1.18,1.99,1.53
		c0.36,0.16,0.73,0.34,1.12,0.42c1.21,0.24,1.72,1.08,1.92,2.18c0.3,1.67,0.13,3.35,0.14,5.02c0,0.39,0,0.78,0,1.28
		c1.38-0.58,2.67-1.15,4.09-1.11c2.45,0.08,4.01,1.54,5.28,3.46c0.24,0.36,0.27,0.98,0.92,0.96c-0.01,0.4,0.24,0.66,0.52,0.87
		c0.71,0.53,0.81,1.18,0.44,1.94c-0.48,0.02-0.96,0.01-1.43,0.08c-1.86,0.26-3.3,0.09-3.7-2.27c-0.2-1.2-1.39-1.66-2.67-1.5
		c-0.55,0.07-1.1,0.19-1.64,0.33c-3.07,0.78-5.75-1.47-5.43-4.61c0.16-1.51-0.28-2.74-1.3-3.83c-0.71-0.76-1.42-1.51-1.88-2.47
		c-1.15-2.41-0.72-4.39,1.36-6.07c0.72-0.58,1.54-1,2.36-1.4C66.4,26.28,67.35,26.28,68.3,26.28z"/>
	<path class="st15" d="M61.04,63.18c0.09,0.57,0.17,1.14,0.26,1.71c-2.64,0.17-5.28,0.34-7.92,0.5c-6.42-0.16-12.85-0.32-19.27-0.49
		c-0.76-0.02-1.51-0.08-2.27-0.12c-0.17-0.69-0.4-1.36-0.51-2.06c-0.18-1.21,0.11-2.27,1.15-3.04c0.27,0.05,0.54,0.14,0.82,0.14
		c6.19,0.09,12.37,0.43,18.56,0.31C55.3,60.06,58.55,60.43,61.04,63.18z"/>
	<path class="st5" d="M62.41,72.06c-1.54,0.17-3.09,0.06-4.63,0c-0.02-0.08-0.03-0.16-0.06-0.23c-0.29-1.01-0.89-2.05,0.19-2.95
		c0.98-0.81,3.27-0.93,4.3-0.25C63.5,69.46,63.55,70.28,62.41,72.06z"/>
	<path class="st12" d="M61.04,63.18c-2.49-2.75-5.74-3.12-9.18-3.05c-6.19,0.13-12.37-0.21-18.56-0.31c-0.27,0-0.54-0.09-0.82-0.14
		c0.5-0.84,1.34-1.43,1.69-2.37c1.43-0.02,2.87-0.05,4.3-0.06c9.05-0.01,18.1,0,27.15-0.01c0,0.62,0.55,0.78,0.93,0.98
		c0.95,0.5,2.02,0.68,3.06,0.94c0.77,0.19,1.68,0.08,2.26,0.82c-3.34,0.13-6.68,0.31-10.01,0.36c-1.05,0.02-1.4,0.25-1.05,1.3
		C60.96,62.13,60.96,62.67,61.04,63.18z"/>
	<path class="st8" d="M33.48,51.22c0.73-0.93,1.8-0.75,2.7-0.63c1.73,0.22,3.46,0.13,5.18,0.23c0.17,0.63,0.34,1.26,0.51,1.88
		c-1.22,1.26-2.8,1.31-4.4,1.31c-1.34,0-2.68,0.01-4.02,0.01c-0.01-0.21-0.01-0.43-0.02-0.64C33.45,52.66,33.46,51.94,33.48,51.22z"
		/>
	<path class="st2" d="M33.44,53.38c0.01,0.21,0.01,0.43,0.02,0.64c-0.54,0.25-1.1,0.34-1.68,0.25
		C32.07,53.49,32.85,53.62,33.44,53.38z"/>
	<path class="st2" d="M50.61,49.36c-3.34-0.05-5.86-0.42-7.91-2.21c-3.38-2.95-4.01-9.34-1.3-12.92c1.61-2.13,3.71-3.62,6.21-4.53
		c2.4-0.88,4.64-0.54,6.63,1.11c3.23,2.68,5.19,6.09,5.91,10.24c0.45,2.61-0.56,4.53-2.61,5.99C55.25,48.69,52.68,49.44,50.61,49.36
		z M49.31,46.01c2.77,0.02,5.75-2.46,6.2-5.22c0.14-0.87,0.27-1.73,0.47-2.58c0.22-0.94,0.14-1.89-0.9-2.34
		c-1.44-0.62-2.73-1.48-4.06-2.28c-0.5-0.3-1-0.43-1.56-0.08c-1.09,0.66-2.24,1.23-3.31,1.92c-2.6,1.68-3.46,3.98-2.61,6.78
		C44.24,44.49,46.51,45.99,49.31,46.01z"/>
	<path class="st8" d="M71.86,59.99c-0.58-0.74-1.48-0.63-2.26-0.82c-1.04-0.26-2.1-0.44-3.06-0.94c-0.38-0.2-0.93-0.36-0.93-0.98
		c2.23-0.6,4.41-0.12,6.6,0.27c1.72,0.3,3.44,0.61,5.15,0.91c-0.01,0.51-0.02,1.01-0.02,1.52C75.52,59.96,73.69,59.98,71.86,59.99z"
		/>
	<path class="st12" d="M77.35,59.95c0.01-0.51,0.02-1.01,0.02-1.52c0.68-0.28,1.39-0.29,2.11-0.3c0.66,0,1.03,0.35,1.04,1.03
		c0.02,0.73-0.36,1.16-1.07,1.13C78.75,60.25,78.05,60.07,77.35,59.95z"/>
	<path class="st12" d="M41.87,52.7c-0.17-0.63-0.34-1.26-0.51-1.88C42.67,51,42.75,51.3,41.87,52.7z"/>
	<path class="st3" d="M79.07,23.33c4.04-0.07,8.06,3.66,8.14,7.58c0.09,4.09-4.01,8.27-8.19,8.36c-4.57,0.09-8.48-3.58-8.57-8.06
		C70.36,27.01,74.29,23.41,79.07,23.33z M78.73,36.38c3.31,0.01,5.37-1.98,5.4-5.22c0.03-3.02-2.14-5-5.56-4.85
		c-2.13,0.09-5.13,1.54-5.06,4.85C73.59,34.43,75.44,36.37,78.73,36.38z"/>
	<path class="st15" d="M49.31,46.01c-2.8-0.02-5.07-1.52-5.77-3.81c-0.85-2.8,0.01-5.1,2.61-6.78c1.07-0.69,2.22-1.26,3.31-1.92
		c0.57-0.35,1.06-0.22,1.56,0.08c1.33,0.81,2.62,1.66,4.06,2.28c1.05,0.45,1.12,1.4,0.9,2.34c-0.2,0.86-0.33,1.72-0.47,2.58
		C55.07,43.55,52.08,46.03,49.31,46.01z"/>
	<path class="st13" d="M78.73,36.38c-3.28-0.01-5.14-1.95-5.21-5.23c-0.08-3.31,2.92-4.75,5.06-4.85c3.42-0.15,5.59,1.84,5.56,4.85
		C84.1,34.4,82.04,36.39,78.73,36.38z"/>
</g>
</svg>
